<svg width="1172" height="644" fill="none" xmlns="http://www.w3.org/2000/svg"><path d="M4.04 26.789c11.885 79.995 29.946 157.994 61.796 232.371 15.6 36.121 34.589 70.199 61.425 99.402 22.286 24.282 48.332 42.528 81.111 50.003 21.218 4.642 42.297 2.925 63.515-.743 129.211-22.193 241.8 11.282 337.072 101.584a547.802 547.802 0 0137.143 40.531c30.411 35.518 65.697 64.303 109.711 81.388a180.655 180.655 0 0051.35 11.979c1.303.205 2.591.5 3.854.882h22.193c10.725-1.811 21.589-3.018 32.175-5.525 34.821-8.218 65-25.582 92.857-47.542 37.654-29.714 68.438-65.788 96.108-104.695 42.76-60.356 76.84-125.355 107.34-192.257a1928.25 1928.25 0 0010.36-23.214V0H0l4.04 26.789z" fill="#F2F2F2"/></svg>